<svg height="512" viewBox="0 0 100 100" width="512" xmlns="http://www.w3.org/2000/svg"><g id="Layer_4_copy_5" data-name="Layer 4 copy 5"><g id="Layer_12_copy_5" data-name="Layer 12 copy 5"><path d="m68.2 26.41c-4.36-4.56-11.2-7.07-19.32-7.07-.48 0-11.94.08-19 7.57-3.88 4.09-5.69 9.58-5.32 16.3.7 12.79 5.54 18.15 9.44 22.45.49.53 1 1.06 1.42 1.58a10 10 0 0 1 2 3.76 3.6 3.6 0 0 0 -.57.39 4.25 4.25 0 0 0 -1.41 3.29 11.76 11.76 0 0 1 -.21 1.77 3.9 3.9 0 0 0 .46 3.34 2.29 2.29 0 0 0 .27.27 4.47 4.47 0 0 0 -.89 2.79v.65a4.31 4.31 0 0 0 .85 3.36 3.37 3.37 0 0 0 2.53.92h1.09a62.36 62.36 0 0 1 2.8 6c.8 2.34 4.06 2.72 6.08 2.72h1.24c5.46-.2 6.1-1.27 6.38-1.72a63.56 63.56 0 0 0 2.39-7 5 5 0 0 0 1.16-.07 4.53 4.53 0 0 0 3.1-4.42 5.71 5.71 0 0 0 -1.16-3.55 5.49 5.49 0 0 0 1.16-3.46c0-.28 0-.56 0-.83 0-1.29.11-2.74-1-3.85a3.34 3.34 0 0 0 -1-.66 7.89 7.89 0 0 1 1.52-3.61c.36-.36.73-.71 1.11-1.07 4.23-4.07 9.5-9.13 10.16-24 .39-6.38-1.48-11.87-5.28-15.85zm-22.31 21.75a1.5 1.5 0 0 0 1.88-.72 7.17 7.17 0 0 0 .54-1.7c.77-2.2 1.84-4.15 2.42-4.29 1.13.6 1.27 3.25 1 5.19-.05.3-.08.53-.1.67a1.5 1.5 0 0 0 3 .48c0-.1.06-.32.1-.62.31-1.71 1-4 1.84-4.44h.06c.49 1.66-.82 8.12-1.79 12.9a107.33 107.33 0 0 0 -2.36 14.8h-5.55c-1-4.42-4.56-20.05-5-23.1a7.51 7.51 0 0 1 1.57-5 2.12 2.12 0 0 1 .85-.71.86.86 0 0 1 .2.19 4 4 0 0 1 .85 3.13c-.2.6-.34 1.1-.43 1.43a1.49 1.49 0 0 0 .92 1.79zm12.27 25.26c1.17 0 1.43.25 1.44.26a1 1 0 0 1 .12.5h-15.07a.5.5 0 0 0 -.5.5.5.5 0 0 0 .5.5h15.07v.15.85l-9.72-.1a.51.51 0 0 0 -.5.49.49.49 0 0 0 .49.51l9.55.1a2.42 2.42 0 0 1 -.4.75l-1.14.07h-.24l-17.87.14a5.57 5.57 0 0 1 -1.8-.2c0-.23.07-.62.12-.92a14.93 14.93 0 0 0 .25-2.2c-.1-1.17.93-1.46 1.69-1.33zm-4.59 19.58a19.41 19.41 0 0 1 -4.08.5c-2 .16-4.05-.23-4.31-.65a52 52 0 0 0 -2.27-5h12.38c-.7 2.15-1.41 4.36-1.72 5.15zm5.31-8.2h-18.42c-.25 0-2.17 0-2.37 0a7.07 7.07 0 0 1 0-1.15c0-.25 0-.5 0-.75 0-1.44 1.39-1.73 1.89-1.78l17.83-.14a1.58 1.58 0 0 1 1.22.46 2.43 2.43 0 0 1 .63 1.56h-6a.5.5 0 0 0 -.5.5.5.5 0 0 0 .5.5h5.88a1.47 1.47 0 0 1 -.66.78zm11.71-42.65c-.59 13.65-5.19 18.06-9.24 21.94l-1.14 1.11a10.81 10.81 0 0 0 -2.35 5.22h-2.4a107.52 107.52 0 0 1 2.29-14.22c2.09-10.3 3-15.3.06-16.31a3.23 3.23 0 0 0 -2.84.28 3.9 3.9 0 0 0 -.88.75 4.47 4.47 0 0 0 -2-2.12 2.92 2.92 0 0 0 -2.59-.11 5.37 5.37 0 0 0 -2.13 2 7.8 7.8 0 0 0 -.5-.72 3.11 3.11 0 0 0 -3.8-1c-2.47 1.03-4.56 5.46-4.07 8.75.43 3.06 3.71 17.53 4.89 22.7h-3.5a13.19 13.19 0 0 0 -2.72-5.14c-.47-.54-1-1.08-1.46-1.64-3.76-4.14-8-8.84-8.66-20.59-.32-5.86 1.18-10.59 4.45-14.05 6.18-6.54 16.75-6.64 16.86-6.64 7.27 0 13.36 2.18 17.15 6.14 3.3 3.41 4.83 8 4.58 13.65z"/><path d="m49.06 15.66a1.65 1.65 0 0 0 .38-.05 1.51 1.51 0 0 0 1.08-1.83c-.5-1.91-.14-6.89 0-8.65a1.5 1.5 0 1 0 -3-.31c-.07.7-.68 6.94 0 9.72a1.51 1.51 0 0 0 1.54 1.12z"/><path d="m21.2 15.42a19.45 19.45 0 0 1 1.22 1.58c1.4 1.94 3.16 4.35 5.06 5.22a1.6 1.6 0 0 0 .63.14 1.5 1.5 0 0 0 .62-2.87c-1.19-.54-2.81-2.77-3.89-4.25a8.17 8.17 0 0 0 -2.08-2.37 1.5 1.5 0 0 0 -1.56 2.57z"/><path d="m21.82 42.73a1.5 1.5 0 0 0 -1.5-1.5h-7.8a1.5 1.5 0 0 0 0 3h7.8a1.5 1.5 0 0 0 1.5-1.5z"/><path d="m25.9 62.66c-1.79.59-8.51 3.6-8.79 3.73a1.5 1.5 0 0 0 .61 2.87 1.67 1.67 0 0 0 .61-.13c1.91-.86 7.15-3.17 8.51-3.62a1.5 1.5 0 1 0 -.94-2.85z"/><path d="m80.56 64.69c-2-.71-5.28-3.73-6.38-4.84a1.5 1.5 0 0 0 -2.13 2.15c.46.46 4.52 4.48 7.5 5.55a1.49 1.49 0 0 0 1.92-.91 1.5 1.5 0 0 0 -.91-1.95z"/><path d="m87.4 40-3.34.17a13.85 13.85 0 0 1 -5.21-.73 1.5 1.5 0 1 0 -1.11 2.79 16.53 16.53 0 0 0 5.64 1h.83l3.34-.23a1.5 1.5 0 0 0 -.15-3z"/><path d="m67.07 22.34a1.46 1.46 0 0 0 1-.37 56.5 56.5 0 0 1 5.51-4.37 1.5 1.5 0 0 0 -.74-2.91c-.36.07-1.22.25-6.73 5a1.5 1.5 0 0 0 -.16 2.12 1.52 1.52 0 0 0 1.12.53z"/><path d="m59.84 26.11a.5.5 0 0 0 -.4.92c4.8 2.09 10.16 6.89 8.45 17.9a.5.5 0 0 0 .42.57h.08a.5.5 0 0 0 .49-.42c1.9-12.25-4.88-17.14-9.04-18.97z"/><path d="m55.69 26.71a.5.5 0 0 0 -.26 1c4.36 1.18 9.75 4.14 10.62 11.51a.51.51 0 0 0 .5.44h.06a.49.49 0 0 0 .43-.55c-.93-7.96-6.69-11.11-11.35-12.4z"/><path d="m51.77 26a21.26 21.26 0 0 0 -2.77-.14.5.5 0 1 0 0 1 20.19 20.19 0 0 1 2.59.12.51.51 0 0 0 .5-.44.49.49 0 0 0 -.32-.54z"/><path d="m31.93 48.57a.49.49 0 0 0 -.52-.49.5.5 0 0 0 -.48.52 18.53 18.53 0 0 0 6.5 12.69.5.5 0 0 0 .64-.76 17.85 17.85 0 0 1 -6.14-11.96z"/></g></g></svg>