<svg height="512" viewBox="0 0 100 100" width="512" xmlns="http://www.w3.org/2000/svg"><g id="Layer_4_copy_5" data-name="Layer 4 copy 5"><g id="Layer_12_copy_5" data-name="Layer 12 copy 5"><path d="m92.27 23.26-.49-8a3.71 3.71 0 0 0 -3.68-3.36l-28.69-.73-.3-2.89a5.42 5.42 0 0 0 -5.2-4.85l-3.74-.12c-1.6 0-9.58.13-10.4 4.4-.21 1.07-.35 2.07-.45 3l-21.32-.58a3.93 3.93 0 0 0 -2.18.65l-.1.05c-1.55 1.07-6.64 4.76-7.19 7.49 0 .12-2.23 12.11.73 14a10.34 10.34 0 0 0 2.74 1.05c-.35 6.51-1.64 31.52-.8 38.09.91 7.1 7.31 6.85 13.49 6.62 1.7-.06 3.45-.13 5.18-.07 2.87.1 11.57.21 21 .28.11 1.11.24 2.56.33 4a7.24 7.24 0 1 0 3-.12c-.09-1.41-.21-2.8-.32-3.84h11.75c7.48 0 13.42-.06 14.43-.21 6-.91 7.46-5 8.9-10.65a7.58 7.58 0 0 0 .18-1c.86-6.47-1.31-27.06-1.76-31.2 1-1.8 4.29-8 4.76-10.88a3.57 3.57 0 0 0 .13-1.13zm-38.45-16.83a2.41 2.41 0 0 1 2.31 2.15l.25 2.52-8.78-.22v-2.17a2.37 2.37 0 0 1 .73-1.71 2.43 2.43 0 0 1 1.75-.68zm-11.31 2.8c.05-.31.11-.63.17-1s.68-.82 1.57-1.14l.68-.21a5.35 5.35 0 0 0 -.33 1.78v2.14l-2.3-.06c.06-.47.13-.98.21-1.51zm-25.35 4.5a.71.71 0 0 1 .78-.59l70.06 1.76a.72.72 0 0 1 .76.59l.49 8a.53.53 0 0 1 -.16.4.82.82 0 0 1 -.57.26l-71.44-.44a.94.94 0 0 1 -.62-.25.57.57 0 0 1 -.16-.41l.08-.91h40.62a.5.5 0 0 0 .5-.5.51.51 0 0 0 -.5-.5h-40.5zm64.6 56h-57.66a4.51 4.51 0 0 1 -3.27-1.32 3.75 3.75 0 0 1 -1.12-2.73l.59-39 63.55.39 2.27 38.45a3.81 3.81 0 0 1 -1 2.82 4.61 4.61 0 0 1 -3.36 1.43zm-67.76-13.88 2.87-3.45-.07 4.69-2.9 3.5c.1-1.52.1-3.11.1-4.74zm.05-1.62c.05-1.6.1-3.21.16-4.8l2.79-3.32-.07 4.69zm.23-6.44c.06-1.68.13-3.32.2-4.86l2.58-3.11-.06 4.7zm.28-6.52c.08-1.84.17-3.5.24-4.89l2.36-2.84-.07 4.69zm.33-6.56c.08-1.62.14-2.62.14-2.67a1.5 1.5 0 0 0 -.53-1.24l-.13-.08 2.88-3.47-.07 4.69zm72-6.44-.07-1.17h1.08zm-75.42-9.36a8.85 8.85 0 0 1 2.47-2.91l-.13 1.5-2.61 3.17c.09-.73.19-1.35.27-1.76zm-.47 3.57 2.65-3.19-.31 3.46a3.74 3.74 0 0 0 .16 1.33l-2.78 3.35c0-1.43.12-3.3.28-4.95zm2.24 8a5.09 5.09 0 0 1 -2.24-.66 3.71 3.71 0 0 1 -.18-.9l3.18-3.86a3.91 3.91 0 0 0 .3.41 4 4 0 0 0 2.23 1.14l-3.21 3.87zm.68 31.68 2.9-3.49-.07 4.69-2.82 3.4c-.02-1.36-.03-2.91-.01-4.59zm.25 8.91c-.09-.71-.16-1.67-.2-2.8l2.75-3.27v.68a6.74 6.74 0 0 0 .7 3.1l-3 3.56a5.87 5.87 0 0 1 -.25-1.26zm.77 2.21 3-3.64a7.67 7.67 0 0 0 .73.89 7.37 7.37 0 0 0 1.44 1.11l-2.61 3.18a4 4 0 0 1 -2.56-1.53zm3.69 1.72 2.37-2.88a7.7 7.7 0 0 0 3.07.63h.24l-2 2.39a26.37 26.37 0 0 1 -3.68-.14zm5.94.07h-.89l2-2.36h3.83l-1.91 2.29c-1.03 0-2.04 0-3.03.08zm5.43-.07h-1.06l1.86-2.24h3.8l-1.94 2.33c-1.06-.03-1.98-.09-2.66-.09zm4 .1 2-2.36h3.82l-2 2.42zm5.06.08 2-2.44h3.83l-2.06 2.48zm5.08 0 2.07-2.49h3.79l-2.09 2.52zm7.19-2.48h3.77l-2.1 2.61h-3.81zm5.89 16.5a4.24 4.24 0 1 1 -4.3-4.2 4.24 4.24 0 0 1 4.24 4.26zm-2.95-13.88 2.13-2.56h3.82l-2.13 2.57zm5.11 0 2.14-2.58h3.83l-2.15 2.61zm5.12 0 2.15-2.59h3.82l-2.14 2.58zm5.14 0 2.13-2.58h3.83l-2.12 2.55zm5.15 0 2.11-2.53h3.83l-2 2.45c-.88.02-2.22.04-3.94.06zm5.34-.25 1.87-2.32a7.79 7.79 0 0 0 2-.32 5.51 5.51 0 0 1 -3.87 2.62z"/><path d="m73.41 31.31a1.5 1.5 0 0 0 -1.4-.23l-8 2.73a1.5 1.5 0 0 0 -.41 2.62l2.66 2-1.92 2.44-9.02 11.55-3.57-3-5.75-4.94a1.47 1.47 0 0 0 -1.12-.35 1.5 1.5 0 0 0 -1 .56l-14 17.74a1.5 1.5 0 0 0 2.36 1.86l2.9-3.68 10.07-12.84 3.95 3.35 5.4 4.59a1.47 1.47 0 0 0 1.13.35 1.52 1.52 0 0 0 1-.56l12-15.28 2.43 1.78a1.51 1.51 0 0 0 2.39-1.12l.49-8.29a1.51 1.51 0 0 0 -.59-1.28zm-2.73 6.69-3-2.23 3.16-1.09z"/><path d="m43.54 18.7h-21a.5.5 0 0 0 0 1h21a.5.5 0 0 0 0-1z"/><path d="m52.5 18.7h-5a.5.5 0 0 0 0 1h5a.5.5 0 0 0 0-1z"/><path d="m81.43 44.66a.5.5 0 0 0 -.55-.44.5.5 0 0 0 -.45.55l.14 1.38 1.43 13.85a6.38 6.38 0 0 1 -1.54 4.54 5.74 5.74 0 0 1 -4.77 1.28h-.07a.51.51 0 0 0 -.55.45.5.5 0 0 0 .45.54 10.94 10.94 0 0 0 1.12.06 6.16 6.16 0 0 0 4.52-1.62 7.29 7.29 0 0 0 1.84-5.25z"/><path d="m80 41.33a.5.5 0 0 0 .47-.54l-.36-5.22a.5.5 0 0 0 -.53-.46.51.51 0 0 0 -.47.53l.36 5.22a.5.5 0 0 0 .53.47z"/></g></g></svg>