<svg height="512" viewBox="0 0 100 100" width="512" xmlns="http://www.w3.org/2000/svg"><g id="Layer_4_copy_5" data-name="Layer 4 copy 5"><g id="Layer_12_copy_5" data-name="Layer 12 copy 5"><path d="m86.53 15.54a26.25 26.25 0 0 0 -18.18-8.82c-3.69-.11-6.73.79-8.54 2.56-2.56 2.5-2.41 6.44.32 11.62-4.65 3.3-9.76 6.93-12.32 8.77-1.12.8-2.23 1.62-3.28 2.41-7.27-2.72-13.84-2.35-17.28 1-5.34 5.23-1.45 15.64 5.62 25.26-4.51 4-10.68 9.51-18.09 17.22a61.43 61.43 0 0 0 -11.15 15.61 1.51 1.51 0 0 0 1.87 2 119.52 119.52 0 0 0 15.07-8 80.08 80.08 0 0 0 10.74-9.17 49.87 49.87 0 0 1 4.74-4.3c.92-.7 2.72-2.23 5-4.2a34.38 34.38 0 0 0 13.61 7 28.51 28.51 0 0 0 6.9.9 15.75 15.75 0 0 0 8.8-2.27c5.91-3.91 2.9-11.82 0-16.72 1.56-2.16 10.39-13.89 11.32-15.22a20.64 20.64 0 0 0 5.79 1.09h.46a9.19 9.19 0 0 0 6.54-2.28c5.15-5-.28-15.91-7.94-24.46zm-40.85 19.46c1.23-.94 2.54-1.91 3.88-2.86 2.51-1.81 7.5-5.36 12.09-8.61a70.35 70.35 0 0 0 7.19 9.14c.43.48.88.93 1.34 1.38l-19.25 22.88c-.89-.75-1.78-1.53-2.62-2.37-9.23-9.18-9.08-13.8-8.92-14.78.88-.7 3.33-2.62 6.29-4.78zm25 32.38-4.32-6.38 1-1.13 3.11 4.6a8.55 8.55 0 0 1 .2 2.88zm-14 4.51c0-.49 0-1 0-1.5l1.15 1.71zm2.45.38-2.8-4.13a29.7 29.7 0 0 0 -1.45-4.76l6.11 9c-.65-.03-1.27-.07-1.9-.14zm-5.8-13.46.79-.94 1.64 2.41a21.44 21.44 0 0 1 -2.47-1.5zm1.42-1.81 1-1.17 3.9 5.76a11.39 11.39 0 0 1 -2.18-.6zm1.65-2 1-1.17 4.86 7.18-.54.61a6.81 6.81 0 0 1 -.78 0zm1.65-2 .95-1 4.91 7.24-1 1.13zm1.65-2 1-1.16 4.95 7.3-1 1.13zm1.65-2 1-1.17 5 7.38-1 1.12zm6.7 9.89.2-.21c.14.25.27.51.41.78s.37.75.54 1.13zm-.11-4.56-4.94-7.1 1-1.17 4.87 7.18zm-33.7 14.94a51.67 51.67 0 0 0 -5 4.56 76.44 76.44 0 0 1 -10.36 8.88c-1.57 1.11-6.54 3.88-10.32 5.8a64.27 64.27 0 0 1 8.44-10.86c7.24-7.54 13.29-12.94 17.75-16.91.81 1 1.64 2 2.51 3l-6 5.16a.5.5 0 0 0 .33.88.52.52 0 0 0 .33-.12l6-5.19q.45.49.93 1c-2.12 1.75-3.77 3.16-4.61 3.8zm5.55-7.16c-10.26-11.45-14.65-22.75-10.44-26.88 1.32-1.29 3.5-1.94 6.14-1.94a22.11 22.11 0 0 1 6.13 1c-2.59 2-4.42 3.43-4.45 3.45a1.53 1.53 0 0 0 -.39.48c-.32.61-2.79 6.35 9.41 18.49a41.81 41.81 0 0 0 3.81 3.29c1.4 2.47 3.59 7.33 3.69 11a31.62 31.62 0 0 1 -13.9-8.89zm22.37 10.26-5.8-8.56a15 15 0 0 0 2.22.66l5.27 7.78c-.55.06-1.11.1-1.69.12zm2.78-.29-5-7.38h1s.52 0 .78 0l4.74 7a12.81 12.81 0 0 1 -1.52.38zm2.47-.75-4.6-6.79a1.52 1.52 0 0 0 .78-.46l.39-.43 4.71 7a7.47 7.47 0 0 1 -1.28.68zm2-1.37-4.8-7.08 1-1.13 4.66 6.88a4.37 4.37 0 0 1 -.81 1.37zm0-17.59-4.82-7.11 1-1.16 4.75 7c-.24.39-.54.8-.87 1.27zm1.59-2.12-4.7-7 1-1.17 4.63 6.92zm2.16-2.65a3.71 3.71 0 0 0 -.58.58l-4.58-6.84 1-1.17 4.67 6.9c-.26.24-.41.43-.51.53zm1.09-1.36-4.65-6.86 1-1.17 4.58 6.79zm1.56-2.09-4.56-6.74 1-1.16 4.5 6.64zm1.54-2.15-3.15-4.62a32.52 32.52 0 0 0 3 1.88l1 1.49zm15-4.17a6.7 6.7 0 0 1 -4.88 1.41c-4.07-.12-10.82-2.45-16.44-8.64-8.49-9.32-11.91-16.5-9.15-19.19 1.1-1.09 3.26-1.72 5.82-1.72h.52a23.46 23.46 0 0 1 16 7.83c7.78 8.6 11.23 17.33 8.16 20.33z"/><path d="m81 18.2a.5.5 0 0 0 0 .7c.06.06 5.22 5.89 7.2 10.48 1.07 2.46 1.31 4.32.68 5.23a2 2 0 0 1 -1.91.71.5.5 0 0 0 0 1h.21a2.88 2.88 0 0 0 2.56-1.15c.86-1.25.66-3.33-.58-6.2-2-4.73-7.15-10.5-7.37-10.74a.5.5 0 0 0 -.79-.03z"/><path d="m78.92 16.05a17.09 17.09 0 0 0 -4.25-1.78.51.51 0 0 0 -.56.44.49.49 0 0 0 .43.55 17 17 0 0 1 3.9 1.66.5.5 0 0 0 .24.06.52.52 0 0 0 .44-.25.5.5 0 0 0 -.2-.68z"/><path d="m29.31 70.82-2.16 2.09a.5.5 0 0 0 .35.86.54.54 0 0 0 .35-.14l2.15-2.09a.5.5 0 0 0 -.7-.72z"/><path d="m54 46.71a.48.48 0 0 0 .36-.16l9.64-10.39a.5.5 0 0 0 0-.7.5.5 0 0 0 -.71 0l-9.62 10.42a.48.48 0 0 0 0 .7.47.47 0 0 0 .33.13z"/><path d="m51.12 50.5a.51.51 0 0 0 .39-.19l1.38-1.75a.5.5 0 1 0 -.78-.62l-1.38 1.75a.49.49 0 0 0 .08.7.51.51 0 0 0 .31.11z"/><path d="m32 37.77a.5.5 0 0 0 -.84-.54c-.16.25-3.88 6.26 5.45 17.87a.5.5 0 1 0 .78-.63c-8.81-10.96-5.39-16.61-5.39-16.7z"/></g></g></svg>