<svg height="512" viewBox="0 0 100 100" width="512" xmlns="http://www.w3.org/2000/svg"><g id="Layer_4_copy_5" data-name="Layer 4 copy 5"><g id="Layer_12_copy_5" data-name="Layer 12 copy 5"><path d="m86.38 17.92a1.49 1.49 0 0 0 .18-1.63 1.51 1.51 0 0 0 -1.42-.82l-11.47.59-3.91-11.54a1.49 1.49 0 0 0 -1.19-1 1.51 1.51 0 0 0 -1.44.59l-11.64 15.89a1.52 1.52 0 0 0 -.2 1.41l.39 1a38.5 38.5 0 0 0 -5.49-1.72c-19.73-4.56-39.68 7.48-45.4 27.41a35.67 35.67 0 0 0 3.21 28.19 33 33 0 0 0 11.1 11.33 0 0 0 0 1 0 0c.2.14 13.34 9.56 28.51 9.56a31.85 31.85 0 0 0 23.29-9.76c11.79-11.83 13.24-23.72 12.38-31.61a36.23 36.23 0 0 0 -10.46-21.47zm-27.15 14a1.55 1.55 0 0 0 1.14 1l1.82.33-21.5 24.43c-.06.06-.13.14-.4.08a2.07 2.07 0 0 1 -1.29-1.22c-.08-.26 0-.34 0-.4l.08-.1 19.67-25.42zm-4.44 20.73a16 16 0 0 1 -4 11.87 18.8 18.8 0 0 1 -12.79 6.53 10.79 10.79 0 0 1 -8.14-2.72c-5.6-5.32-5.84-14-.54-20.14a17.6 17.6 0 0 1 13.12-6.28 14.26 14.26 0 0 1 3.46.43l-3.81 4.94c-3.59-.76-7.25.64-10.09 4a7.77 7.77 0 0 0 -1.68 6.39 9.62 9.62 0 0 0 4.56 6.52 10 10 0 0 0 13.28-2.93 8.86 8.86 0 0 0 .84-8.46l4.31-4.92a12 12 0 0 1 1.48 4.77zm-18.79 4.49a4.66 4.66 0 0 0 1.43 2.37 4.79 4.79 0 0 0 2.49 1.24 4.55 4.55 0 0 0 .52 0 3.3 3.3 0 0 0 2.46-1.1l3.7-4.22a5.93 5.93 0 0 1 -1 4.15 7 7 0 0 1 -9.25 2 6.61 6.61 0 0 1 -3.13-4.45 4.78 4.78 0 0 1 1-4 7.9 7.9 0 0 1 5.6-3.12l-3.13 4a3.25 3.25 0 0 0 -.69 3.13zm11.86-17.33c-6.86-2.34-15.36.06-20.86 6.43-6.35 7.39-6 17.83.75 24.27a13.63 13.63 0 0 0 9.5 3.56h.86a21.57 21.57 0 0 0 14.89-7.6 19 19 0 0 0 4.74-14.13 15 15 0 0 0 -2.43-6.82l4.2-4.78a19 19 0 0 1 2.25 4.4c5.35 15.14 1.77 24.22-12.36 31.37a25.31 25.31 0 0 1 -19.91 1.64 19.08 19.08 0 0 1 -11.26-10.67c-5.08-11.86.62-26.48 12.71-32.58a25.18 25.18 0 0 1 11.37-2.77 22.64 22.64 0 0 1 8.43 1.61c.46.18.9.4 1.34.61zm20-31.6 3.08 9.08-.77.88-.33.37-1-3.08a.5.5 0 1 0 -1 .33l1.22 3.62-1.06 1.28-1-1.91a.5.5 0 1 0 -.89.44l1.13 2.29-1.31 1.49c-.48-.94-1.24-2.29-2.41-4.27a.5.5 0 0 0 -.86.52c1 1.63 2 3.42 2.55 4.57l-1.31 1.5-1-1.46a.5.5 0 1 0 -.82.56l1.13 1.68-2.06 2.37-2.77-7.4zm-57.28 66.56a32.74 32.74 0 0 1 -2.91-25.86 35.78 35.78 0 0 1 34.1-26.2 34.25 34.25 0 0 1 7.74.89 33.72 33.72 0 0 1 7.64 2.75l.37 1-3.52 4.57c-.68-.35-1.38-.68-2.1-1a27.06 27.06 0 0 0 -22.27 1.27c-13.52 6.81-19.85 23.19-14.16 36.47a22.32 22.32 0 0 0 13.03 12.34 25.47 25.47 0 0 0 8.79 1.52 30 30 0 0 0 13.5-3.31c15.59-7.88 19.72-18.36 13.83-35a21.94 21.94 0 0 0 -3.05-5.72l1-1.14a36 36 0 0 1 6.43 17.65.49.49 0 0 0 .49.47.5.5 0 0 0 .51-.47 37 37 0 0 0 -6.74-18.46l1.07-1.22c2.24 2.65 7.39 9.68 7.27 18.13-.16 10.89-2.52 14.45-6.36 19.35a.5.5 0 0 0 .09.7.45.45 0 0 0 .3.11.53.53 0 0 0 .4-.19c4-5.07 6.41-8.75 6.57-20 .13-9-5.3-16.26-7.59-18.92l.64-.73 1.35.23a31.81 31.81 0 0 1 6.42 30c-5.16 18.12-24.42 29.38-42.88 25.11a30.87 30.87 0 0 1 -19.96-14.34zm28.62 18.52-.2-.29c1 0 1.91-.06 2.85-.14l.71 1c-1.09-.11-2.22-.31-3.36-.57zm4.69.78-.89-1.33c.9-.11 1.79-.25 2.68-.41l1.32 1.93c-1-.02-2.06-.08-3.11-.19zm4.29.19-1.45-2.15q1.27-.27 2.52-.63l1.75 2.6c-.91.1-1.86.16-2.82.18zm3.94-.33-1.87-2.76c.81-.25 1.61-.53 2.39-.83l2.1 3.1c-.86.21-1.74.36-2.62.49zm3.63-.78-2.16-3.15c.77-.32 1.52-.66 2.26-1l2.32 3.42a25.38 25.38 0 0 1 -2.42.73zm3.36-1.15-2.36-3.48c.73-.37 1.44-.78 2.14-1.2l2.44 3.61c-.72.35-1.47.71-2.22 1.07zm3.11-1.55-2.48-3.66c.69-.43 1.37-.89 2-1.37l2.5 3.7c-.64.43-1.32.88-2.02 1.29zm2.86-1.92-2.51-3.71c.65-.49 1.29-1 1.91-1.54l2.52 3.72q-.94.77-1.92 1.49zm3.7-3.19c-.34.34-.69.65-1 1l-2.51-3.71c.61-.56 1.21-1.13 1.78-1.73l2.5 3.68c-.29.2-.55.42-.77.72zm1.43-1.52-2.49-3.72q.86-.93 1.65-1.92l2.5 3.69c-.52.64-1.07 1.27-1.66 1.91zm2.33-2.71-2.54-3.75c.53-.69 1-1.4 1.52-2.13l2.56 3.77c-.48.68-.99 1.37-1.54 2.07zm2.14-3-2.56-3.78c.48-.76.93-1.55 1.36-2.36l2.6 3.84c-.43.74-.9 1.51-1.4 2.28zm1.94-3.28-2.62-3.89c.42-.86.8-1.75 1.16-2.64l2.67 3.94c-.36.85-.76 1.7-1.21 2.57zm1.67-3.67-2.7-4c.27-.76.53-1.53.76-2.32.06-.22.11-.44.17-.67l2.74 4c-.26 1-.58 1.97-.97 2.97zm1.31-4.22-2.75-4.05c.26-1.15.47-2.3.62-3.44l2.75 4.06a30 30 0 0 1 -.62 3.41zm.78-5-2.74-4a34.54 34.54 0 0 0 .11-4.19l2.67 3.93a31.24 31.24 0 0 1 -.04 4.26zm-.17-6.4-2.57-3.8a35.48 35.48 0 0 0 -1-5.88l1.94 2.88a31.71 31.71 0 0 1 1.63 6.8zm-9.11-23.82-7.6-1.36 1.7-1.95h4.3a.5.5 0 0 0 0-1h-3.43l1.16-1.33h4.56a.5.5 0 0 0 .5-.5.5.5 0 0 0 -.5-.5h-3.68l1.31-1.51h6.85a.5.5 0 0 0 .5-.5.5.5 0 0 0 -.5-.5h-6l1.17-1.34 4.18-.11a.5.5 0 0 0 0-1l-3.26.08 1-1.11 8.56-.45z"/><path d="m68.64 64.59h.12a.51.51 0 0 0 .49-.39 34.89 34.89 0 0 0 .61-3.54.5.5 0 0 0 -.44-.55.51.51 0 0 0 -.56.44 30.73 30.73 0 0 1 -.59 3.45.51.51 0 0 0 .37.59z"/><path d="m20.88 65.35a.5.5 0 0 0 -.32.63 15.89 15.89 0 0 0 3.72 5.6c2.47 2.46 6.91 5.35 14.14 5.35h.52a.5.5 0 0 0 0-1h-.52c-13.29 0-16.76-9.84-16.9-10.27a.5.5 0 0 0 -.64-.31z"/><path d="m44.77 75.75h.14c.21-.06 5.07-1.52 7.07-3.85a.51.51 0 0 0 -.06-.71.49.49 0 0 0 -.7.06c-1.81 2.11-6.55 3.53-6.59 3.54a.5.5 0 0 0 -.34.62.49.49 0 0 0 .48.34z"/></g></g></svg>