<svg xmlns="http://www.w3.org/2000/svg" viewBox="0 0 1200 600" width="1200" height="600">
  <defs>
    <style>
      .bg { fill: #f8fafc; }
      .title { fill: #1e293b; font-family: -apple-system, BlinkMacSystemFont, 'Segoe UI', Roboto, sans-serif; font-size: 42px; font-weight: 700; }
      .subtitle { fill: #64748b; font-family: -apple-system, BlinkMacSystemFont, 'Segoe UI', Roboto, sans-serif; font-size: 20px; font-weight: 400; }
      .logo { fill: #3a86ff; }
      .accent1 { fill: #8338ec; }
      .accent2 { fill: #ff006e; }
    </style>
  </defs>
  
  <!-- Background -->
  <rect class="bg" width="1200" height="600"/>
  
  <!-- Logo -->
  <g transform="translate(50, 50)">
    <path class="logo" d="M85.82,29C83,38.46,78.17,58.93,78.17,86.54L51.88,84.06s-2.21-35.55,5.84-60.82C57.72,23.24,86.93,25.25,85.82,29Z"/>
    <path class="accent1" d="M0,0C8.83,93.79,59,86.54,59,86.54H78.17C45,78.11,34.45,31.67,31.13,0Z"/>
    <path class="accent2" d="M57.72,23.24c9.19,68.7,56.45,63.33,56.45,63.33h18.5c-31-6.19-41.46-39.49-45-63.33Z"/>
  </g>
  
  <!-- Title -->
  <text x="200" y="180" class="title">GetMyNa.me</text>
  <text x="200" y="220" class="subtitle">Find the Perfect Domain Hack</text>
  
  <!-- Description -->
  <text x="200" y="280" class="subtitle">Discover creative domain names that combine your brand</text>
  <text x="200" y="310" class="subtitle">with clever TLD combinations</text>
  
  <!-- Decorative elements -->
  <circle cx="1000" cy="120" r="35" fill="#3a86ff" opacity="0.1"/>
  <circle cx="1050" cy="200" r="25" fill="#8338ec" opacity="0.1"/>
  <circle cx="950" cy="280" r="30" fill="#ff006e" opacity="0.1"/>
</svg>